<?xml version="1.0" encoding="utf-8"?>
<!-- Generator: Adobe Illustrator 26.5.0, SVG Export Plug-In . SVG Version: 6.00 Build 0)  -->
<svg version="1.1" id="Layer_1" xmlns="http://www.w3.org/2000/svg" xmlns:xlink="http://www.w3.org/1999/xlink" x="0px" y="0px"
	 width="1137px" height="326.3px" viewBox="0 0 1137 326.3" style="enable-background:new 0 0 1137 326.3;" xml:space="preserve">
<g id="Layer_1_00000142160690958266679200000014456090399491700608_">
</g>
<g id="Layer_4">
	<path id="Logo_00000000203161819975746420000000742706247323870119_" d="M996.9,78.8h-47.6l74.2,172.4l-3.6,8.2
		c-8.7,19.4-19.9,30.2-41.9,30.2c-5.6,0-12.3-1-17.9-2.6v36.8c7.2,2,14.3,2.6,23,2.6c40.9,0,66-30.2,81.8-69.1L1137,78.8h-47.6
		L1046,205.6L996.9,78.8z M844.9,207.7c0-19.4,25.1-27.6,46.5-29.2l18.9-1v10.2c0,18.4-15.9,39.9-38.9,39.9
		C857.2,227.6,844.9,221.5,844.9,207.7z M793.8,143.7l39.9,4.1c1.5-23,15.9-36.8,38.9-36.8c23,0,36.3,13.8,36.3,36.3v3.6l-19.9,1
		c-42.5,2.6-86.4,19.4-86.4,58.8c0,31.2,24.6,48.6,57.3,48.6c24.6,0,46-12.8,52.2-30.2v26.6h39.9V152.4c0-49.1-34.8-77.2-78.8-77.2
		C828.6,75.2,796.3,101.8,793.8,143.7z M637.3,167.8c0-30.7,19.4-56.8,51.2-56.8c31.2,0,50.6,24.6,50.6,56.8
		c0,31.2-19.4,56.8-50.6,56.8C657.7,224.6,637.3,197.4,637.3,167.8z M593.8,167.8c0,52.7,39.4,91.6,88,91.6c22.5,0,46-8.2,56.8-28.1
		v24.6H779V0h-42.5v103.3c-10.7-19.9-34.8-28.1-54.7-28.1C631.1,75.2,593.8,116.1,593.8,167.8z M439.3,167.3
		c0-30.7,19.4-55.8,49.1-55.8c30.2,0,49.6,25.1,49.6,55.8S518.6,223,488.4,223C458.8,223,439.3,198,439.3,167.3z M395.8,167.3
		c0,54.2,43,92.1,92.6,92.1c50.1,0,93.1-37.9,93.1-92.1s-43-92.1-93.1-92.1C438.8,75.2,395.8,113,395.8,167.3z M131.4,115.6
		l46,140.2h51.7l33.8-132l33.2,132h50.1l58.3-177H360l-38.9,134L290,78.8h-54.7l-31.2,134l-38.9-134H98.2l18.9-47.1L79.8,16.9
		l-24,61.9H0v36.8h41.9l-9.7,24c-9.2,23-13.8,42.5-13.8,57.3c0,37.3,27.1,62.4,65.5,62.4c13.8,0,31.7-4.1,44-10.7l-10.2-32.7
		c-6.1,3.1-19.4,7.7-28.6,7.7c-15.9,0-28.6-9.7-28.6-29.2c0-12.8,3.1-25.6,8.7-40.4l14.8-38.4L131.4,115.6L131.4,115.6z"/>
</g>
</svg>
